<svg width="17" height="16" viewBox="0 0 17 16" fill="none" xmlns="http://www.w3.org/2000/svg">
<path fill-rule="evenodd" clip-rule="evenodd" d="M13.775 2.3541C12.293 0.863117 10.322 0.0416459 8.22226 0.0407715C3.89555 0.0407715 0.374224 3.57917 0.372484 7.92815C0.371904 9.31839 0.733318 10.6755 1.42028 11.8717L0.306641 15.9591L4.46793 14.8622C5.61453 15.4907 6.90539 15.822 8.21907 15.8223H8.22236C12.5486 15.8223 16.0703 12.2837 16.0719 7.93447C16.0728 5.82673 15.2571 3.84499 13.775 2.3541ZM8.22226 14.4902H8.21956C7.04888 14.4897 5.90073 14.1736 4.89886 13.5763L4.66072 13.4342L2.19135 14.0852L2.85046 11.6658L2.69528 11.4178C2.04216 10.3739 1.69728 9.16741 1.69786 7.92864C1.69922 4.31388 4.62611 1.373 8.22487 1.373C9.96755 1.37358 11.6057 2.05641 12.8375 3.29566C14.0693 4.53491 14.7472 6.18213 14.7467 7.93398C14.7451 11.549 11.8184 14.4902 8.22226 14.4902ZM11.801 9.57994C11.6049 9.48123 10.6406 9.00457 10.4607 8.9387C10.2811 8.87292 10.1502 8.84018 10.0196 9.03741C9.88875 9.23464 9.51293 9.67865 9.39845 9.81011C9.28398 9.94166 9.16969 9.95817 8.97352 9.85946C8.77734 9.76085 8.1454 9.55264 7.39617 8.88118C6.81316 8.35857 6.41955 7.71314 6.30507 7.51591C6.19078 7.31849 6.3041 7.22211 6.39112 7.11368C6.60344 6.84873 6.81606 6.57096 6.88142 6.4395C6.94687 6.30795 6.9141 6.19282 6.86498 6.0942C6.81606 5.99559 6.4238 5.02546 6.2604 4.63071C6.10106 4.24655 5.9395 4.29843 5.81903 4.29241C5.70474 4.28667 5.57393 4.28551 5.44311 4.28551C5.31239 4.28551 5.09987 4.33477 4.92003 4.53219C4.74029 4.72952 4.23366 5.20627 4.23366 6.1764C4.23366 7.14652 4.93647 8.0837 5.03451 8.21526C5.13255 8.34681 6.41761 10.3376 8.38508 11.1912C8.85305 11.3945 9.21833 11.5156 9.50326 11.6065C9.97316 11.7565 10.4006 11.7353 10.7386 11.6846C11.1155 11.6279 11.899 11.2077 12.0626 10.7474C12.226 10.287 12.226 9.8924 12.1768 9.81011C12.1279 9.72791 11.9971 9.67865 11.801 9.57994Z" fill="#BD2D43"/>
</svg>
