<svg width="18" height="18" viewBox="0 0 18 18" fill="none" xmlns="http://www.w3.org/2000/svg">
<path d="M8.89771 0.74266C5.48091 0.74266 2.23631 0.438955 0.996999 3.61705C0.48509 4.92966 0.55943 6.63436 0.55943 9.07528C0.55943 11.2172 0.490736 13.2303 0.996999 14.5326C2.23348 17.7125 5.50443 17.4079 8.89583 17.4079C12.1677 17.4079 15.5412 17.7483 16.7956 14.5326C17.3084 13.2068 17.2332 11.5275 17.2332 9.07528C17.2332 5.82009 17.4129 3.7186 15.8329 2.14083C14.2332 0.542384 12.0698 0.74266 8.89394 0.74266H8.89771ZM8.15055 2.24426C15.2777 2.23298 16.1849 1.44128 15.6843 12.4395C15.5064 16.3294 12.5422 15.9025 8.89865 15.9025C2.25513 15.9025 2.0641 15.7126 2.0641 9.07152C2.0641 2.35333 2.59107 2.24802 8.15055 2.24238V2.24426ZM13.3487 3.62739C12.7963 3.62739 12.3484 4.07496 12.3484 4.62689C12.3484 5.17883 12.7963 5.62639 13.3487 5.62639C13.9011 5.62639 14.349 5.17883 14.349 4.62689C14.349 4.07496 13.9011 3.62739 13.3487 3.62739ZM8.89771 4.79614C6.53295 4.79614 4.61612 6.7124 4.61612 9.07528C4.61612 11.4382 6.53295 13.3535 8.89771 13.3535C11.2625 13.3535 13.1784 11.4382 13.1784 9.07528C13.1784 6.7124 11.2625 4.79614 8.89771 4.79614ZM8.89771 6.29774C12.5723 6.29774 12.5771 11.8528 8.89771 11.8528C5.22401 11.8528 5.21836 6.29774 8.89771 6.29774Z" fill="#BD2D43"/>
</svg>
