<svg width="190" height="70" viewBox="0 0 190 70" fill="none" xmlns="http://www.w3.org/2000/svg">
<path d="M22.944 23V5.6H19.896V20.456H14.016V5.6H10.968V20.456H5.088V5.6H2.04V23H22.944ZM29.2084 14.288C29.2084 10.064 31.4884 7.784 34.3684 7.784C37.2484 7.784 39.5284 10.064 39.5284 14.288C39.5284 18.536 37.2484 20.816 34.3684 20.816C31.4884 20.816 29.2084 18.536 29.2084 14.288ZM42.6724 14.288C42.6724 8.912 39.4804 5.288 34.3684 5.288C29.2564 5.288 26.0644 8.912 26.0644 14.288C26.0644 19.64 29.2564 23.312 34.3684 23.312C39.4804 23.312 42.6724 19.64 42.6724 14.288ZM50.4769 16.016L46.0609 5.6H42.7969L49.0369 19.088L48.6049 19.784C48.1009 20.552 47.5489 20.792 46.6129 20.792H44.8849V23.312H46.8289C49.3969 23.312 50.7649 21.992 51.7009 19.88L57.8689 5.6H54.5569L50.4769 16.016Z" fill="white"/>
<path d="M15 40L18.3677 50.3647H29.2658L20.4491 56.7705L23.8168 67.1353L15 60.7295L6.18322 67.1353L9.55093 56.7705L0.734152 50.3647H11.6323L15 40Z" fill="#B63847"/>
<path d="M95 40L98.3677 50.3647H109.266L100.449 56.7705L103.817 67.1353L95 60.7295L86.1832 67.1353L89.5509 56.7705L80.7342 50.3647H91.6323L95 40Z" fill="#B63847"/>
<path d="M55 40L58.3677 50.3647H69.2658L60.4491 56.7705L63.8168 67.1353L55 60.7295L46.1832 67.1353L49.5509 56.7705L40.7342 50.3647H51.6323L55 40Z" fill="#B63847"/>
<path d="M135 40L138.368 50.3647H149.266L140.449 56.7705L143.817 67.1353L135 60.7295L126.183 67.1353L129.551 56.7705L120.734 50.3647H131.632L135 40Z" fill="#B63847"/>
<path d="M175 40L178.368 50.3647H189.266L180.449 56.7705L183.817 67.1353L175 60.7295L166.183 67.1353L169.551 56.7705L160.734 50.3647H171.632L175 40Z" fill="#B63847"/>
</svg>
