<svg width="17" height="16" viewBox="0 0 17 16" fill="none" xmlns="http://www.w3.org/2000/svg">
<path d="M0.555261 7.78198L4.32093 9.18744L5.77847 13.8749C5.87174 14.1751 6.23885 14.2861 6.48252 14.0869L8.58156 12.3757C8.80159 12.1964 9.11499 12.1875 9.34493 12.3544L13.1309 15.103C13.3915 15.2925 13.7608 15.1497 13.8262 14.8347L16.5996 1.49415C16.6709 1.15008 16.3329 0.86305 16.0053 0.98976L0.550848 6.95161C0.169466 7.09869 0.172789 7.63865 0.555261 7.78198ZM5.54358 8.43928L12.9031 3.90654C13.0354 3.82532 13.1714 4.00416 13.0579 4.10951L6.98413 9.75535C6.77064 9.95407 6.63292 10.22 6.59392 10.5087L6.38702 12.042C6.35962 12.2467 6.07204 12.267 6.01555 12.0689L5.21983 9.27291C5.12869 8.95401 5.2615 8.61338 5.54358 8.43928Z" fill="#BD2D43"/>
</svg>
