<svg width="190" height="70" viewBox="0 0 190 70" fill="none" xmlns="http://www.w3.org/2000/svg">
<path d="M13.704 17.216C13.152 19.616 11.52 20.816 9.144 20.816C6.36 20.816 4.224 18.464 4.224 14.24C4.224 10.04 6.408 7.784 9.168 7.784C11.448 7.784 13.104 9.008 13.656 11.384H16.584C15.888 7.472 13.128 5.288 9.264 5.288C4.2 5.288 1.08 8.768 1.08 14.24C1.08 19.712 4.032 23.312 9.12 23.312C13.152 23.312 15.888 21.128 16.632 17.216H13.704ZM19.4306 23H31.7426V20.432H22.4786V15.32H31.2386V12.8H22.4786V8.144H31.7426V5.6H19.4306V23ZM35.0166 5.6V23H38.0646V16.424H40.8006C44.9046 16.424 48.1446 15.464 48.1446 11.072C48.1446 6.2 44.5686 5.6 40.7526 5.6H35.0166ZM40.7526 8.048C42.8886 8.048 44.9766 8.288 44.9766 11.096C44.9766 13.592 43.2006 13.928 40.8966 13.928H38.0646V8.048H40.7526ZM50.7431 23H57.7271C61.2791 23 64.2311 21.584 64.2311 17.84C64.2311 15.536 63.0551 14.408 61.6151 13.76C62.6471 13.112 63.5591 11.672 63.5591 10.04C63.5591 6.464 60.4631 5.6 57.2951 5.6H50.7431V23ZM53.7911 15.2H57.6791C60.0071 15.2 61.0871 16.04 61.0871 17.84C61.0871 19.568 60.0311 20.552 57.8471 20.552H53.7911V15.2ZM53.7911 8.048H57.5831C59.3111 8.048 60.4631 8.84 60.4631 10.376C60.4631 12.104 59.3831 12.872 57.5831 12.872H53.7911V8.048ZM67.3369 23H70.2889L78.7849 10.064V23H81.7369V5.6H78.7849L70.2889 18.536V5.6H67.3369V23ZM97.4696 17.216C96.9176 19.616 95.2856 20.816 92.9096 20.816C90.1256 20.816 87.9896 18.464 87.9896 14.24C87.9896 10.04 90.1736 7.784 92.9336 7.784C95.2136 7.784 96.8696 9.008 97.4216 11.384H100.35C99.6536 7.472 96.8936 5.288 93.0296 5.288C87.9656 5.288 84.8456 8.768 84.8456 14.24C84.8456 19.712 87.7976 23.312 92.8856 23.312C96.9176 23.312 99.6536 21.128 100.398 17.216H97.4696Z" fill="white"/>
<path d="M15 40L18.3677 50.3647H29.2658L20.4491 56.7705L23.8168 67.1353L15 60.7295L6.18322 67.1353L9.55093 56.7705L0.734152 50.3647H11.6323L15 40Z" fill="#B63847"/>
<path d="M95 40L98.3677 50.3647H109.266L100.449 56.7705L103.817 67.1353L95 60.7295L86.1832 67.1353L89.5509 56.7705L80.7342 50.3647H91.6323L95 40Z" fill="#B63847"/>
<path d="M55 40L58.3677 50.3647H69.2658L60.4491 56.7705L63.8168 67.1353L55 60.7295L46.1832 67.1353L49.5509 56.7705L40.7342 50.3647H51.6323L55 40Z" fill="#B63847"/>
<path d="M135 40L138.368 50.3647H149.266L140.449 56.7705L143.817 67.1353L135 60.7295L126.183 67.1353L129.551 56.7705L120.734 50.3647H131.632L135 40Z" fill="white"/>
<path d="M175 40L178.368 50.3647H189.266L180.449 56.7705L183.817 67.1353L175 60.7295L166.183 67.1353L169.551 56.7705L160.734 50.3647H171.632L175 40Z" fill="white"/>
</svg>
