<svg width="190" height="70" viewBox="0 0 190 70" fill="none" xmlns="http://www.w3.org/2000/svg">
<path d="M5.088 8.12H13.92V5.6H2.04V23H8.592C12.696 23 15.216 21.464 15.216 17.528C15.216 13.64 12.672 12.344 8.736 12.344H5.088V8.12ZM5.088 20.48V14.816H8.616C10.824 14.816 12.072 15.56 12.072 17.6C12.072 19.496 10.872 20.48 8.688 20.48H5.088ZM16.1038 23H19.2238L20.5678 19.136H27.6238L28.9918 23H32.3278L25.7998 5.6H22.5838L16.1038 23ZM24.0718 9.128L26.7118 16.592H21.4558L24.0718 9.128ZM34.4306 5.6V23H37.4786V16.424H40.2146C44.3186 16.424 47.5586 15.464 47.5586 11.072C47.5586 6.2 43.9826 5.6 40.1666 5.6H34.4306ZM40.1666 8.048C42.3026 8.048 44.3906 8.288 44.3906 11.096C44.3906 13.592 42.6146 13.928 40.3106 13.928H37.4786V8.048H40.1666Z" fill="white"/>
<path d="M15 40L18.3677 50.3647H29.2658L20.4491 56.7705L23.8168 67.1353L15 60.7295L6.18322 67.1353L9.55093 56.7705L0.734152 50.3647H11.6323L15 40Z" fill="#B63847"/>
<path d="M95 40L98.3677 50.3647H109.266L100.449 56.7705L103.817 67.1353L95 60.7295L86.1832 67.1353L89.5509 56.7705L80.7342 50.3647H91.6323L95 40Z" fill="white"/>
<path d="M55 40L58.3677 50.3647H69.2658L60.4491 56.7705L63.8168 67.1353L55 60.7295L46.1832 67.1353L49.5509 56.7705L40.7342 50.3647H51.6323L55 40Z" fill="white"/>
<path d="M135 40L138.368 50.3647H149.266L140.449 56.7705L143.817 67.1353L135 60.7295L126.183 67.1353L129.551 56.7705L120.734 50.3647H131.632L135 40Z" fill="white"/>
<path d="M175 40L178.368 50.3647H189.266L180.449 56.7705L183.817 67.1353L175 60.7295L166.183 67.1353L169.551 56.7705L160.734 50.3647H171.632L175 40Z" fill="white"/>
</svg>
