<svg width="190" height="70" viewBox="0 0 190 70" fill="none" xmlns="http://www.w3.org/2000/svg">
<path d="M4.224 14.288C4.224 10.064 6.504 7.784 9.384 7.784C12.264 7.784 14.544 10.064 14.544 14.288C14.544 18.536 12.264 20.816 9.384 20.816C6.504 20.816 4.224 18.536 4.224 14.288ZM17.688 14.288C17.688 8.912 14.496 5.288 9.384 5.288C4.272 5.288 1.08 8.912 1.08 14.288C1.08 19.64 4.272 23.312 9.384 23.312C14.496 23.312 17.688 19.64 17.688 14.288ZM30.6478 4.64H27.5998V6.536C22.7998 6.848 19.9678 9.8 19.9678 14.144C19.9678 18.368 22.7998 21.344 27.5998 21.608V23.672H30.6478V21.608C35.4238 21.344 38.3038 18.272 38.3038 14.168C38.3038 9.704 35.4238 6.848 30.6478 6.536V4.64ZM27.5998 19.16C24.9358 18.896 23.0878 17.144 23.0878 14.168C23.0878 10.976 24.9358 9.296 27.5998 8.984V19.16ZM30.6478 8.984C33.2638 9.296 35.1598 10.976 35.1598 14.168C35.1598 17.144 33.2638 18.896 30.6478 19.16V8.984ZM41.2978 23H44.2498L52.7458 10.064V23H55.6978V5.6H52.7458L44.2498 18.536V5.6H41.2978V23ZM75.7266 20.48H73.4466V5.6H70.3986V20.456H62.8146V5.6H59.7666V23H72.8946V26.576H75.7266V20.48ZM78.4931 23H81.4451L89.9411 10.064V23H92.8931V5.6H89.9411L81.4451 18.536V5.6H78.4931V23ZM95.0179 23H98.1379L99.4819 19.136H106.538L107.906 23H111.242L104.714 5.6H101.498L95.0179 23ZM102.986 9.128L105.626 16.592H100.37L102.986 9.128ZM124.697 5.6V12.8H116.393V5.6H113.345V23H116.393V15.32H124.697V23H127.745V5.6H124.697ZM135.485 23H138.533V8.144H144.005V5.6H130.013V8.144H135.485V23Z" fill="white"/>
<path d="M15 40L18.3677 50.3647H29.2658L20.4491 56.7705L23.8168 67.1353L15 60.7295L6.18322 67.1353L9.55093 56.7705L0.734152 50.3647H11.6323L15 40Z" fill="#B63847"/>
<path d="M95 40L98.3677 50.3647H109.266L100.449 56.7705L103.817 67.1353L95 60.7295L86.1832 67.1353L89.5509 56.7705L80.7342 50.3647H91.6323L95 40Z" fill="#B63847"/>
<path d="M55 40L58.3677 50.3647H69.2658L60.4491 56.7705L63.8168 67.1353L55 60.7295L46.1832 67.1353L49.5509 56.7705L40.7342 50.3647H51.6323L55 40Z" fill="#B63847"/>
<path d="M135 40L138.368 50.3647H149.266L140.449 56.7705L143.817 67.1353L135 60.7295L126.183 67.1353L129.551 56.7705L120.734 50.3647H131.632L135 40Z" fill="#B63847"/>
<path d="M175 40L178.368 50.3647H189.266L180.449 56.7705L183.817 67.1353L175 60.7295L166.183 67.1353L169.551 56.7705L160.734 50.3647H171.632L175 40Z" fill="white"/>
</svg>
