<svg width="190" height="70" viewBox="0 0 190 70" fill="none" xmlns="http://www.w3.org/2000/svg">
<path d="M12.936 23H16.56L9.744 13.88L16.296 5.6H12.72L7.272 12.728H5.064V5.6H2.04V23H5.064V15.272H7.224L12.936 23ZM23.9925 16.016L19.5765 5.6H16.3125L22.5525 19.088L22.1205 19.784C21.6165 20.552 21.0645 20.792 20.1285 20.792H18.4005V23.312H20.3445C22.9125 23.312 24.2805 21.992 25.2165 19.88L31.3845 5.6H28.0725L23.9925 16.016ZM31.2684 23H34.7004L39.3804 16.496L43.9884 23H47.6364L41.2284 13.952L47.2284 5.6H43.7724L39.5004 11.528L35.3244 5.6H31.6764L37.6764 14.096L31.2684 23ZM61.1576 5.6V12.8H52.8536V5.6H49.8056V23H52.8536V15.32H61.1576V23H64.2056V5.6H61.1576ZM81.0184 5.6H75.3544C71.0104 5.6 68.1304 6.944 68.1304 11.048C68.1304 13.544 69.3304 14.888 71.4184 15.872L67.0744 23H70.7224L74.4424 16.688H77.9704V23H81.0184V5.6ZM77.9704 8.144V14.144H75.4744C73.0024 14.144 71.2744 13.472 71.2744 11.144C71.2744 8.744 72.9064 8.144 75.4744 8.144H77.9704Z" fill="white"/>
<path d="M15 40L18.3677 50.3647H29.2658L20.4491 56.7705L23.8168 67.1353L15 60.7295L6.18322 67.1353L9.55093 56.7705L0.734152 50.3647H11.6323L15 40Z" fill="#B63847"/>
<path d="M95 40L98.3677 50.3647H109.266L100.449 56.7705L103.817 67.1353L95 60.7295L86.1832 67.1353L89.5509 56.7705L80.7342 50.3647H91.6323L95 40Z" fill="white"/>
<path d="M55 40L58.3677 50.3647H69.2658L60.4491 56.7705L63.8168 67.1353L55 60.7295L46.1832 67.1353L49.5509 56.7705L40.7342 50.3647H51.6323L55 40Z" fill="#B63847"/>
<path d="M135 40L138.368 50.3647H149.266L140.449 56.7705L143.817 67.1353L135 60.7295L126.183 67.1353L129.551 56.7705L120.734 50.3647H131.632L135 40Z" fill="white"/>
<path d="M175 40L178.368 50.3647H189.266L180.449 56.7705L183.817 67.1353L175 60.7295L166.183 67.1353L169.551 56.7705L160.734 50.3647H171.632L175 40Z" fill="white"/>
</svg>
